# OBJ written from E:\3D Work\Gina Table\Cube.obj
# Units	meters

o Mesh
v -0.5 -0.5 0.5
v 0.5 -0.5 0.5
v 0.5 0.5 0.5
v -0.5 0.5 0.5
v -0.5 -0.5 -0.5
v 0.5 -0.5 -0.5
v 0.5 0.5 -0.5
v -0.5 0.5 -0.5
vn 0 0 -1
vn 0 0 1
vn 1 0 0
vn 0 -1 0
vn 0 1 0
vn -1 0 0
vt 0.340408 0.988162
vt 0.340235 0.660575
vt 0.667998 0.987987
vt 0.667827 0.660397
vt 0.339868 0.00539899
vt 0.667456 0.00521899
vt 0.340049 0.332987
vt 0.667633 0.332808
vt 0.995422 0.660187
vt 0.995216 0.332601
vt 0.333187 0.994918
vt 0.00559639 0.995129
vt 0.332978 0.667331
vt 0.00539013 0.667542
vt 0.0126455 0.660759
vt 0.0124621 0.33317
mtllib Cube.mtl
usemtl Default
g Default
f 5/1/1 8/2/1 6/3/1
f 7/4/1 6/3/1 8/2/1
f 1/5/2 2/6/2 4/7/2
f 3/8/2 4/7/2 2/6/2
f 6/9/3 7/4/3 2/10/3
f 3/8/3 2/10/3 7/4/3
f 5/11/4 6/12/4 1/13/4
f 2/14/4 1/13/4 6/12/4
f 7/4/5 8/2/5 3/8/5
f 4/7/5 3/8/5 8/2/5
f 8/2/6 5/15/6 4/7/6
f 1/16/6 4/7/6 5/15/6
